<svg xmlns="http://www.w3.org/2000/svg" viewBox="0 0 120 120" width="120" height="120">
  <defs>
    <linearGradient id="og" x1="0%" y1="0%" x2="100%" y2="100%">
      <stop offset="0%" style="stop-color:#E8731A"/>
      <stop offset="100%" style="stop-color:#F59E3F"/>
    </linearGradient>
  </defs>
  <!-- Shield base -->
  <path d="M60 16 L94 32 L94 58 Q94 84 60 100 Q26 84 26 58 L26 32 Z" fill="url(#og)" opacity="0.1"/>
  <path d="M60 16 L94 32 L94 58 Q94 84 60 100 Q26 84 26 58 L26 32 Z" fill="none" stroke="url(#og)" stroke-width="2"/>
  <!-- Document icon inside shield -->
  <rect x="42" y="36" width="28" height="36" rx="3" fill="none" stroke="#3A3A3C" stroke-width="2" opacity="0.5"/>
  <rect x="42" y="36" width="28" height="36" rx="3" fill="#3A3A3C" opacity="0.08"/>
  <!-- Document fold -->
  <path d="M62 36 L70 36 L70 44 L62 44 Z" fill="#3A3A3C" opacity="0.15"/>
  <!-- Document lines -->
  <line x1="48" y1="50" x2="64" y2="50" stroke="#E8731A" stroke-width="1.5" opacity="0.5"/>
  <line x1="48" y1="56" x2="60" y2="56" stroke="#3A3A3C" stroke-width="1" opacity="0.3"/>
  <line x1="48" y1="62" x2="62" y2="62" stroke="#3A3A3C" stroke-width="1" opacity="0.3"/>
  <!-- Scale balance -->
  <line x1="48" y1="82" x2="72" y2="82" stroke="#E8731A" stroke-width="1.5" opacity="0.4"/>
  <circle cx="48" cy="82" r="3" fill="#E8731A" opacity="0.3"/>
  <circle cx="72" cy="82" r="3" fill="#E8731A" opacity="0.3"/>
</svg>
