<svg xmlns="http://www.w3.org/2000/svg" viewBox="0 0 120 120" width="120" height="120">
  <defs>
    <linearGradient id="og" x1="0%" y1="0%" x2="100%" y2="0%">
      <stop offset="0%" style="stop-color:#E8731A"/>
      <stop offset="100%" style="stop-color:#F59E3F"/>
    </linearGradient>
  </defs>
  <!-- Message bubble 1 (main) -->
  <path d="M18 28 L88 28 Q96 28 96 36 L96 66 Q96 74 88 74 L40 74 L28 88 L28 74 L26 74 Q18 74 18 66 Z" fill="url(#og)" opacity="0.15"/>
  <path d="M18 28 L88 28 Q96 28 96 36 L96 66 Q96 74 88 74 L40 74 L28 88 L28 74 L26 74 Q18 74 18 66 Z" fill="none" stroke="url(#og)" stroke-width="2"/>
  <!-- Message lines -->
  <line x1="32" y1="42" x2="82" y2="42" stroke="#E8731A" stroke-width="2" opacity="0.4"/>
  <line x1="32" y1="52" x2="72" y2="52" stroke="#3A3A3C" stroke-width="1.5" opacity="0.3"/>
  <line x1="32" y1="62" x2="60" y2="62" stroke="#3A3A3C" stroke-width="1.5" opacity="0.2"/>
  <!-- Notification dot -->
  <circle cx="92" cy="32" r="6" fill="#E8731A"/>
  <text x="92" y="35" text-anchor="middle" font-family="Helvetica,Arial,sans-serif" font-size="8" font-weight="700" fill="#fff">3</text>
  <!-- Small reply bubble -->
  <path d="M56 82 L98 82 Q104 82 104 88 L104 100 Q104 106 98 106 L84 106 L80 112 L80 106 L62 106 Q56 106 56 100 Z" fill="#3A3A3C" opacity="0.2"/>
</svg>
