<svg xmlns="http://www.w3.org/2000/svg" viewBox="0 0 120 120" width="120" height="120">
  <defs>
    <linearGradient id="og" x1="0%" y1="0%" x2="100%" y2="0%">
      <stop offset="0%" style="stop-color:#E8731A"/>
      <stop offset="100%" style="stop-color:#F59E3F"/>
    </linearGradient>
  </defs>
  <!-- Central person -->
  <circle cx="60" cy="36" r="10" fill="url(#og)"/>
  <path d="M42 62 Q42 50 60 50 Q78 50 78 62 L78 66 L42 66 Z" fill="url(#og)" opacity="0.8"/>
  <!-- Left person -->
  <circle cx="28" cy="52" r="8" fill="#3A3A3C" opacity="0.7"/>
  <path d="M14 74 Q14 64 28 64 Q42 64 42 74 L42 77 L14 77 Z" fill="#3A3A3C" opacity="0.6"/>
  <!-- Right person -->
  <circle cx="92" cy="52" r="8" fill="#3A3A3C" opacity="0.7"/>
  <path d="M78 74 Q78 64 92 64 Q106 64 106 74 L106 77 L78 77 Z" fill="#3A3A3C" opacity="0.6"/>
  <!-- Flow arrows -->
  <path d="M38 86 L60 80 L82 86" fill="none" stroke="#E8731A" stroke-width="1.5" opacity="0.5"/>
  <path d="M28 94 L60 88 L92 94" fill="none" stroke="#E8731A" stroke-width="1.5" opacity="0.3"/>
  <!-- Connection dots -->
  <circle cx="60" cy="80" r="2.5" fill="#E8731A" opacity="0.6"/>
  <circle cx="60" cy="88" r="2.5" fill="#E8731A" opacity="0.4"/>
</svg>
