<svg xmlns="http://www.w3.org/2000/svg" viewBox="0 0 120 120" width="120" height="120">
  <defs>
    <linearGradient id="green" x1="0%" y1="0%" x2="100%" y2="100%">
      <stop offset="0%" style="stop-color:#10B981"/>
      <stop offset="100%" style="stop-color:#34D399"/>
    </linearGradient>
    <linearGradient id="og" x1="0%" y1="0%" x2="100%" y2="0%">
      <stop offset="0%" style="stop-color:#E8731A"/>
      <stop offset="100%" style="stop-color:#F59E3F"/>
    </linearGradient>
  </defs>
  <!-- Leaf shape -->
  <path d="M30 90 Q30 40 60 24 Q90 40 90 90" fill="url(#green)" opacity="0.15"/>
  <path d="M30 90 Q30 40 60 24 Q90 40 90 90" fill="none" stroke="url(#green)" stroke-width="2"/>
  <!-- Leaf vein -->
  <path d="M60 24 L60 90" fill="none" stroke="#10B981" stroke-width="1.5" opacity="0.4"/>
  <path d="M60 45 L44 55" fill="none" stroke="#10B981" stroke-width="1" opacity="0.3"/>
  <path d="M60 55 L76 65" fill="none" stroke="#10B981" stroke-width="1" opacity="0.3"/>
  <path d="M60 65 L42 75" fill="none" stroke="#10B981" stroke-width="1" opacity="0.3"/>
  <!-- CO2 indicator -->
  <circle cx="88" cy="30" r="14" fill="url(#og)" opacity="0.15"/>
  <text x="88" y="28" text-anchor="middle" font-family="Helvetica,Arial,sans-serif" font-size="8" font-weight="700" fill="#E8731A" opacity="0.7">CO₂</text>
  <path d="M82 36 L94 36" stroke="#E8731A" stroke-width="1" opacity="0.4"/>
  <path d="M86 39 L90 39" stroke="#E8731A" stroke-width="1" opacity="0.3"/>
  <!-- Recycle dots -->
  <circle cx="32" cy="98" r="3" fill="#10B981" opacity="0.4"/>
  <circle cx="60" cy="102" r="3" fill="#10B981" opacity="0.5"/>
  <circle cx="88" cy="98" r="3" fill="#10B981" opacity="0.4"/>
</svg>
