<svg xmlns="http://www.w3.org/2000/svg" viewBox="0 0 120 120" width="120" height="120">
  <defs>
    <linearGradient id="og" x1="0%" y1="0%" x2="100%" y2="100%">
      <stop offset="0%" style="stop-color:#E8731A"/>
      <stop offset="100%" style="stop-color:#F59E3F"/>
    </linearGradient>
  </defs>
  <!-- Outer ring -->
  <circle cx="60" cy="60" r="46" fill="none" stroke="#3A3A3C" stroke-width="1.5" opacity="0.2" stroke-dasharray="6,4"/>
  <!-- Inner ring -->
  <circle cx="60" cy="60" r="30" fill="none" stroke="url(#og)" stroke-width="1.5" opacity="0.3"/>
  <!-- Central hub -->
  <circle cx="60" cy="60" r="16" fill="url(#og)" opacity="0.2"/>
  <circle cx="60" cy="60" r="16" fill="none" stroke="url(#og)" stroke-width="2.5"/>
  <!-- Pulse rings -->
  <circle cx="60" cy="60" r="8" fill="url(#og)" opacity="0.4"/>
  <circle cx="60" cy="60" r="3" fill="url(#og)"/>
  <!-- Module connection nodes on outer ring -->
  <circle cx="60" cy="14" r="4" fill="#3A3A3C" opacity="0.5"/>
  <circle cx="100" cy="40" r="4" fill="#3A3A3C" opacity="0.5"/>
  <circle cx="100" cy="80" r="4" fill="#3A3A3C" opacity="0.5"/>
  <circle cx="60" cy="106" r="4" fill="#3A3A3C" opacity="0.5"/>
  <circle cx="20" cy="80" r="4" fill="#3A3A3C" opacity="0.5"/>
  <circle cx="20" cy="40" r="4" fill="#3A3A3C" opacity="0.5"/>
  <!-- Connection lines to center -->
  <line x1="60" y1="30" x2="60" y2="18" stroke="#E8731A" stroke-width="1" opacity="0.3"/>
  <line x1="84" y1="46" x2="96" y2="42" stroke="#E8731A" stroke-width="1" opacity="0.3"/>
  <line x1="84" y1="74" x2="96" y2="78" stroke="#E8731A" stroke-width="1" opacity="0.3"/>
  <line x1="60" y1="90" x2="60" y2="102" stroke="#E8731A" stroke-width="1" opacity="0.3"/>
  <line x1="36" y1="74" x2="24" y2="78" stroke="#E8731A" stroke-width="1" opacity="0.3"/>
  <line x1="36" y1="46" x2="24" y2="42" stroke="#E8731A" stroke-width="1" opacity="0.3"/>
</svg>
