<svg xmlns="http://www.w3.org/2000/svg" viewBox="0 0 120 120" width="120" height="120">
  <defs>
    <linearGradient id="og" x1="0%" y1="0%" x2="100%" y2="100%">
      <stop offset="0%" style="stop-color:#E8731A"/>
      <stop offset="100%" style="stop-color:#F59E3F"/>
    </linearGradient>
  </defs>
  <!-- Central hub node -->
  <circle cx="60" cy="60" r="18" fill="url(#og)"/>
  <text x="60" y="66" text-anchor="middle" font-family="Helvetica,Arial,sans-serif" font-size="16" font-weight="700" fill="#fff">360</text>
  <!-- Orbiting module dots -->
  <circle cx="60" cy="18" r="6" fill="#3A3A3C" opacity="0.8"/>
  <circle cx="96" cy="32" r="6" fill="#3A3A3C" opacity="0.7"/>
  <circle cx="102" cy="68" r="6" fill="#3A3A3C" opacity="0.8"/>
  <circle cx="84" cy="98" r="6" fill="#3A3A3C" opacity="0.7"/>
  <circle cx="36" cy="98" r="6" fill="#3A3A3C" opacity="0.8"/>
  <circle cx="18" cy="68" r="6" fill="#3A3A3C" opacity="0.7"/>
  <circle cx="24" cy="32" r="6" fill="#3A3A3C" opacity="0.8"/>
  <!-- Connection lines -->
  <line x1="60" y1="42" x2="60" y2="24" stroke="#E8731A" stroke-width="1.2" opacity="0.35"/>
  <line x1="74" y1="48" x2="90" y2="35" stroke="#E8731A" stroke-width="1.2" opacity="0.35"/>
  <line x1="78" y1="60" x2="96" y2="65" stroke="#E8731A" stroke-width="1.2" opacity="0.35"/>
  <line x1="72" y1="74" x2="80" y2="92" stroke="#E8731A" stroke-width="1.2" opacity="0.35"/>
  <line x1="48" y1="74" x2="40" y2="92" stroke="#E8731A" stroke-width="1.2" opacity="0.35"/>
  <line x1="42" y1="60" x2="24" y2="65" stroke="#E8731A" stroke-width="1.2" opacity="0.35"/>
  <line x1="48" y1="48" x2="30" y2="35" stroke="#E8731A" stroke-width="1.2" opacity="0.35"/>
</svg>
