<svg xmlns="http://www.w3.org/2000/svg" viewBox="0 0 120 120" width="120" height="120">
  <defs>
    <linearGradient id="og" x1="0%" y1="0%" x2="100%" y2="0%">
      <stop offset="0%" style="stop-color:#E8731A"/>
      <stop offset="100%" style="stop-color:#F59E3F"/>
    </linearGradient>
  </defs>
  <!-- Network graph -->
  <!-- Central node -->
  <circle cx="60" cy="55" r="12" fill="url(#og)" opacity="0.2"/>
  <circle cx="60" cy="55" r="12" fill="none" stroke="url(#og)" stroke-width="2"/>
  <!-- Person icon in center -->
  <circle cx="60" cy="50" r="5" fill="#E8731A" opacity="0.6"/>
  <path d="M52 62 Q52 57 60 57 Q68 57 68 62" fill="#E8731A" opacity="0.4"/>
  <!-- Surrounding stakeholder nodes -->
  <circle cx="28" cy="28" r="8" fill="#3A3A3C" opacity="0.3"/>
  <circle cx="92" cy="28" r="8" fill="#3A3A3C" opacity="0.3"/>
  <circle cx="28" cy="85" r="8" fill="#3A3A3C" opacity="0.3"/>
  <circle cx="92" cy="85" r="8" fill="#3A3A3C" opacity="0.3"/>
  <circle cx="60" cy="100" r="8" fill="#3A3A3C" opacity="0.3"/>
  <circle cx="16" cy="55" r="6" fill="#3A3A3C" opacity="0.2"/>
  <circle cx="104" cy="55" r="6" fill="#3A3A3C" opacity="0.2"/>
  <!-- Connection lines -->
  <line x1="48" y1="47" x2="34" y2="34" stroke="#E8731A" stroke-width="1.2" opacity="0.3"/>
  <line x1="72" y1="47" x2="86" y2="34" stroke="#E8731A" stroke-width="1.2" opacity="0.3"/>
  <line x1="48" y1="63" x2="34" y2="79" stroke="#E8731A" stroke-width="1.2" opacity="0.3"/>
  <line x1="72" y1="63" x2="86" y2="79" stroke="#E8731A" stroke-width="1.2" opacity="0.3"/>
  <line x1="60" y1="67" x2="60" y2="92" stroke="#E8731A" stroke-width="1.2" opacity="0.3"/>
  <line x1="48" y1="55" x2="22" y2="55" stroke="#E8731A" stroke-width="1" opacity="0.2"/>
  <line x1="72" y1="55" x2="98" y2="55" stroke="#E8731A" stroke-width="1" opacity="0.2"/>
</svg>
