<svg xmlns="http://www.w3.org/2000/svg" viewBox="0 0 1200 400" width="1200" height="400">
  <defs>
    <linearGradient id="orangeGrad" x1="0%" y1="0%" x2="100%" y2="100%">
      <stop offset="0%" style="stop-color:#E8731A;stop-opacity:1" />
      <stop offset="100%" style="stop-color:#F59E3F;stop-opacity:1" />
    </linearGradient>
  </defs>
  <rect width="1200" height="400" fill="#1A1A1E"/>
  <g transform="translate(105, 200)">

    <circle cx="0" cy="0" r="38" fill="none" stroke="url(#orangeGrad)" stroke-width="1.5" opacity="0.25"/>
    <circle cx="0" cy="0" r="26" fill="none" stroke="url(#orangeGrad)" stroke-width="1.5" opacity="0.25"/>
    <circle cx="0" cy="0" r="14" fill="none" stroke="url(#orangeGrad)" stroke-width="1.5" opacity="0.25"/>
    <line x1="0" y1="0" x2="0" y2="-38" stroke="url(#orangeGrad)" stroke-width="1" opacity="0.2"/>
    <line x1="0" y1="0" x2="38" y2="0" stroke="url(#orangeGrad)" stroke-width="1" opacity="0.2"/>
    <path d="M0,0 L0,-38 A38,38 0 0,1 27,-27 Z" fill="url(#orangeGrad)" opacity="0.2"/>
    <circle cx="0" cy="0" r="5" fill="url(#orangeGrad)"/>
    <circle cx="18" cy="-22" r="4" fill="url(#orangeGrad)" opacity="0.8"/>
    <circle cx="-12" cy="20" r="3" fill="url(#orangeGrad)" opacity="0.45"/>

  </g>
  <g transform="translate(220, 172)">
    <text x="0" y="30" font-family="'Liberation Sans','Segoe UI',Arial,sans-serif" font-size="72" font-weight="300" fill="#E8E8EC" letter-spacing="-1">Risk</text><text x="146" y="30" font-family="'Liberation Sans','Segoe UI',Arial,sans-serif" font-size="72" font-weight="700" fill="url(#orangeGrad)" letter-spacing="-1">Radar</text>
  </g>
  <text x="220" y="240" font-family="'Roboto','Segoe UI',Arial,sans-serif" font-size="17" font-weight="700" fill="#6B7B8D" textLength="336" lengthAdjust="spacing">RISK EARLY WARNING</text>
  <rect x="220" y="256" width="100" height="3" rx="1.5" fill="url(#orangeGrad)"/>
</svg>