<svg xmlns="http://www.w3.org/2000/svg" viewBox="0 0 512 512" width="512" height="512">
  <defs>
    <linearGradient id="orangeGrad" x1="0%" y1="0%" x2="100%" y2="100%">
      <stop offset="0%" style="stop-color:#E8731A;stop-opacity:1" />
      <stop offset="100%" style="stop-color:#F59E3F;stop-opacity:1" />
    </linearGradient>
  </defs>
  <g transform="translate(256, 256)">
    <circle cx="0" cy="0" r="210" fill="none" stroke="#E8731A" stroke-width="3" stroke-dasharray="8,12" opacity="0.25"/>
    <line x1="0" y1="0" x2="0" y2="-170" stroke="url(#orangeGrad)" stroke-width="5" opacity="0.4"/>
    <line x1="0" y1="0" x2="147" y2="-85" stroke="url(#orangeGrad)" stroke-width="5" opacity="0.4"/>
    <line x1="0" y1="0" x2="147" y2="85" stroke="url(#orangeGrad)" stroke-width="5" opacity="0.4"/>
    <line x1="0" y1="0" x2="0" y2="170" stroke="url(#orangeGrad)" stroke-width="5" opacity="0.4"/>
    <line x1="0" y1="0" x2="-147" y2="85" stroke="url(#orangeGrad)" stroke-width="5" opacity="0.4"/>
    <line x1="0" y1="0" x2="-147" y2="-85" stroke="url(#orangeGrad)" stroke-width="5" opacity="0.4"/>
    <polygon points="0,-90 78,-45 78,45 0,90 -78,45 -78,-45" fill="url(#orangeGrad)"/>
    <polygon points="0,-52 45,-26 45,26 0,52 -45,26 -45,-26" fill="#3A3A3C"/>
    <circle cx="0" cy="0" r="14" fill="#E8731A"/>
    <circle cx="0" cy="-170" r="26" fill="#3A3A3C"/><circle cx="0" cy="-170" r="14" fill="url(#orangeGrad)"/>
    <circle cx="147" cy="-85" r="26" fill="#3A3A3C"/><circle cx="147" cy="-85" r="14" fill="url(#orangeGrad)"/>
    <circle cx="147" cy="85" r="26" fill="#3A3A3C"/><circle cx="147" cy="85" r="14" fill="url(#orangeGrad)"/>
    <circle cx="0" cy="170" r="26" fill="#3A3A3C"/><circle cx="0" cy="170" r="14" fill="url(#orangeGrad)"/>
    <circle cx="-147" cy="85" r="26" fill="#3A3A3C"/><circle cx="-147" cy="85" r="14" fill="url(#orangeGrad)"/>
    <circle cx="-147" cy="-85" r="26" fill="#3A3A3C"/><circle cx="-147" cy="-85" r="14" fill="url(#orangeGrad)"/>
  </g>
</svg>