<svg xmlns="http://www.w3.org/2000/svg" viewBox="0 0 1200 400" width="1200" height="400">
  <defs>
    <linearGradient id="orangeGrad" x1="0%" y1="0%" x2="100%" y2="100%">
      <stop offset="0%" style="stop-color:#E8731A;stop-opacity:1" />
      <stop offset="100%" style="stop-color:#F59E3F;stop-opacity:1" />
    </linearGradient>
  </defs>
  <rect width="1200" height="400" fill="#1A1A1E"/>
  <g transform="translate(105, 200)">

    <polygon points="0,-40 35,-20 35,20 0,40 -35,20 -35,-20" fill="url(#orangeGrad)"/>
    <polygon points="0,-27 23.5,-13.5 23.5,13.5 0,27 -23.5,13.5 -23.5,-13.5" fill="#1A1A1E"/>
    <circle cx="0" cy="0" r="5.5" fill="url(#orangeGrad)"/>
    <circle cx="0" cy="-17" r="3.5" fill="url(#orangeGrad)" opacity="0.65"/>
    <circle cx="15" cy="-8.5" r="3.5" fill="url(#orangeGrad)" opacity="0.65"/>
    <circle cx="15" cy="8.5" r="3.5" fill="url(#orangeGrad)" opacity="0.65"/>
    <circle cx="0" cy="17" r="3.5" fill="url(#orangeGrad)" opacity="0.65"/>
    <circle cx="-15" cy="8.5" r="3.5" fill="url(#orangeGrad)" opacity="0.65"/>
    <circle cx="-15" cy="-8.5" r="3.5" fill="url(#orangeGrad)" opacity="0.65"/>
    <line x1="0" y1="0" x2="0" y2="-17" stroke="url(#orangeGrad)" stroke-width="1.5" opacity="0.4"/>
    <line x1="0" y1="0" x2="15" y2="-8.5" stroke="url(#orangeGrad)" stroke-width="1.5" opacity="0.4"/>
    <line x1="0" y1="0" x2="15" y2="8.5" stroke="url(#orangeGrad)" stroke-width="1.5" opacity="0.4"/>
    <line x1="0" y1="0" x2="0" y2="17" stroke="url(#orangeGrad)" stroke-width="1.5" opacity="0.4"/>
    <line x1="0" y1="0" x2="-15" y2="8.5" stroke="url(#orangeGrad)" stroke-width="1.5" opacity="0.4"/>
    <line x1="0" y1="0" x2="-15" y2="-8.5" stroke="url(#orangeGrad)" stroke-width="1.5" opacity="0.4"/>

  </g>
  <g transform="translate(220, 172)">
    <text x="0" y="30" font-family="'Liberation Sans','Segoe UI',Arial,sans-serif" font-size="72" font-weight="300" fill="#E8E8EC" letter-spacing="-1">Smart</text><text x="206" y="30" font-family="'Liberation Sans','Segoe UI',Arial,sans-serif" font-size="72" font-weight="700" fill="url(#orangeGrad)" letter-spacing="-1">Hub</text>
  </g>
  <text x="220" y="240" font-family="'Roboto','Segoe UI',Arial,sans-serif" font-size="17" font-weight="700" fill="#6B7B8D" textLength="338" lengthAdjust="spacing">MASTER ORCHESTRATOR</text>
  <rect x="220" y="256" width="100" height="3" rx="1.5" fill="url(#orangeGrad)"/>
</svg>