<svg xmlns="http://www.w3.org/2000/svg" viewBox="0 0 600 200" width="600" height="200">
  <defs>
    <linearGradient id="orangeGrad" x1="0%" y1="0%" x2="100%" y2="0%">
      <stop offset="0%" style="stop-color:#E8731A"/>
      <stop offset="100%" style="stop-color:#F59E3F"/>
    </linearGradient>
  </defs>
  
  <rect width="600" height="200" rx="12" fill="#1C1C1E"/>
  
  <!-- Trade 1 -->
  <rect x="18" y="28" width="28" height="16" rx="3" fill="#8E8E93"/>
  <rect x="50" y="28" width="28" height="16" rx="3" fill="#8E8E93" opacity="0.5"/>
  <rect x="82" y="28" width="28" height="16" rx="3" fill="#8E8E93" opacity="0.2"/>
  
  <!-- Trade 2 -->
  <rect x="18" y="50" width="28" height="16" rx="3" fill="url(#orangeGrad)" opacity="0.35"/>
  <rect x="50" y="50" width="28" height="16" rx="3" fill="url(#orangeGrad)"/>
  <rect x="82" y="50" width="28" height="16" rx="3" fill="url(#orangeGrad)" opacity="0.5"/>
  
  <!-- Trade 3 -->
  <rect x="18" y="72" width="28" height="16" rx="3" fill="#8E8E93" opacity="0.15"/>
  <rect x="50" y="72" width="28" height="16" rx="3" fill="#8E8E93" opacity="0.35"/>
  <rect x="82" y="72" width="28" height="16" rx="3" fill="#8E8E93"/>
  <rect x="114" y="72" width="28" height="16" rx="3" fill="#8E8E93" opacity="0.5"/>
  
  <!-- Trade 4 -->
  <rect x="50" y="94" width="28" height="16" rx="3" fill="url(#orangeGrad)" opacity="0.15"/>
  <rect x="82" y="94" width="28" height="16" rx="3" fill="url(#orangeGrad)" opacity="0.35"/>
  <rect x="114" y="94" width="28" height="16" rx="3" fill="url(#orangeGrad)"/>
  <rect x="146" y="94" width="28" height="16" rx="3" fill="url(#orangeGrad)" opacity="0.5"/>

  <!-- Trade 5 -->
  <rect x="82" y="116" width="28" height="16" rx="3" fill="#8E8E93" opacity="0.15"/>
  <rect x="114" y="116" width="28" height="16" rx="3" fill="#8E8E93" opacity="0.35"/>
  <rect x="146" y="116" width="28" height="16" rx="3" fill="#8E8E93"/>
  
  <!-- Diagonal flow line -->
  <line x1="32" y1="24" x2="160" y2="138" stroke="#E8731A" stroke-width="1.5" stroke-dasharray="4,3" opacity="0.6"/>
  
  <text x="192" y="88" font-family="'Helvetica Neue', Helvetica, Arial, sans-serif" font-size="52" font-weight="700" letter-spacing="-1" fill="#F5F5F7">
    <tspan>Takt</tspan><tspan fill="#E8731A">Flow</tspan>
  </text>
  
  <rect x="447" y="58" width="48" height="28" rx="6" fill="url(#orangeGrad)"/>
  <text x="471" y="78" font-family="'Helvetica Neue', Helvetica, Arial, sans-serif" font-size="16" font-weight="700" fill="white" text-anchor="middle">AI</text>
  
  <text x="192" y="116" font-family="'Helvetica Neue', Helvetica, Arial, sans-serif" font-size="13" font-weight="400" letter-spacing="3.5" fill="#8E8E93">ADAPTIVE TAKT PLANNING</text>
</svg>
